# xmcd
#
# Track frame offsets:
#	150
#	9925
#	21928
#	31918
#	43817
#	55405
#	68889
#	75947
#	88408
#	100654
#	109559
#	120592
#
# Disc length: 1757 seconds
#
# Revision: 1
# Processed by: cddbd v1.4PL0 Copyright (c) Steve Scherf et al.
# Submitted via: audiograbber 1.81.03
#
DISCID=8d06db0c
DTITLE=The Staple Singers - Swing Low Sweet Chariot
DYEAR=1963
DGENRE=Gospel
TTITLE0=I'm So Glad
TTITLE1=Swing Down Chariot
TTITLE2=The Old Landmark
TTITLE3=Good News
TTITLE4=Each Day
TTITLE5=Uncloudy Day
TTITLE6=Let's Go Home
TTITLE7=Pray On
TTITLE8=Help Me Jesus
TTITLE9=Going Away
TTITLE10=Don't Knock
TTITLE11=Swing Low Sweet Chariot
EXTD=
EXTT0=
EXTT1=
EXTT2=
EXTT3=
EXTT4=
EXTT5=
EXTT6=
EXTT7=
EXTT8=
EXTT9=
EXTT10=
EXTT11=
PLAYORDER=
